<svg width="63" height="74" viewBox="0 0 63 74" fill="none" xmlns="http://www.w3.org/2000/svg">
<path d="M49.3917 18.1831C49.3917 8.14156 41.2587 0 31.2085 0C21.167 0 13.0254 8.14156 13.0254 18.1831C13.0254 28.2247 21.167 36.3662 31.2085 36.3662C41.2591 36.3662 49.3917 28.2247 49.3917 18.1831ZM17.5709 18.5765C17.5709 18.5765 17.0465 13.4187 20.7617 9.48486C23.3766 12.106 31.2085 18.5765 44.846 18.5765C44.846 26.0968 38.7285 32.214 31.2085 32.214C23.6885 32.214 17.5709 26.0964 17.5709 18.5765Z" fill="black"/>
<path d="M0 50.3535V58.3959V68.7987C0 71.6739 2.33152 74 5.20132 74H57.2158C60.0909 74 62.4171 71.6735 62.4171 68.7987V58.3959V50.3535C62.4171 44.6085 57.7642 39.9507 52.0143 39.9507H42.7918C42.1401 39.9507 41.3186 40.3906 40.9572 40.9328L31.8637 53.7862C31.5022 54.3287 30.9159 54.3287 30.5544 53.7862L21.4605 40.9323C21.099 40.3897 20.2775 39.9503 19.6257 39.9503H10.4028C4.66279 39.9503 0 44.6084 0 50.3535Z" fill="black"/>
</svg>
